<svg xmlns="http://www.w3.org/2000/svg" xml:space="preserve" viewBox="0 0 504 504">
  <circle cx="252" cy="252" r="252" fill="#2622B5"/>
    <path fill="#e6e9ee" d="M334.3205694 416.6490347 94.9635985 348.0763625l74.6862768-260.6968696 239.3569709 68.5726722z"/>
    <path fill="#fff" d="M127.5 116.4h249v271.2h-249z"/>
    <g fill="#2B2A40">
    <path d="M205.1 186.6h-9.9l-17.9-27.3c-1.1-1.6-1.8-2.8-2.2-3.6h-.1c.2 1.5.2 3.9.2 7v23.9H166v-43.4h10.5l17.2 26.4c.8 1.2 1.5 2.4 2.2 3.5h.1c-.2-1-.2-3-.2-6v-24h9.2v43.5h.1zM241.1 186.6h-26v-43.4h25v8h-15.3v9.7H239v7.9h-14.2v9.9h16.3v7.9zM304.9 143.2l-11.5 43.4h-10.8l-7.2-27.9c-.4-1.5-.6-3.1-.7-4.9h-.1c-.2 2-.4 3.6-.8 4.9l-7.4 27.9H255l-11.4-43.4h10.7l6.1 28.9c.3 1.2.5 2.9.6 5h.2c.1-1.6.4-3.3.9-5.1l7.9-28.8h10.5l7.1 29.2c.3 1.1.5 2.6.7 4.7h.1c.1-1.6.3-3.2.6-4.8l6-29h9.9v-.1zM308.4 185v-9.7c1.8 1.5 3.7 2.6 5.7 3.3 2.1.7 4.1 1.1 6.2 1.1 1.2 0 2.3-.1 3.2-.3.9-.2 1.7-.5 2.3-.9.6-.4 1.1-.9 1.4-1.4s.5-1.1.5-1.7c0-.8-.2-1.6-.7-2.3s-1.1-1.3-2-1.8c-.8-.6-1.8-1.1-3-1.6s-2.4-1.1-3.7-1.6c-3.4-1.4-5.9-3.1-7.6-5.2-1.7-2-2.5-4.5-2.5-7.4 0-2.3.5-4.2 1.4-5.8s2.1-3 3.7-4 3.4-1.8 5.4-2.3c2.1-.5 4.2-.7 6.5-.7s4.3.1 6 .4c1.7.3 3.4.7 4.8 1.3v9.1c-.7-.5-1.5-.9-2.4-1.3-.9-.4-1.7-.7-2.6-1s-1.8-.4-2.7-.6c-.9-.1-1.8-.2-2.6-.2-1.1 0-2.1.1-3 .3s-1.7.5-2.3.9c-.6.4-1.1.8-1.5 1.4-.3.5-.5 1.1-.5 1.8s.2 1.4.6 2 .9 1.1 1.6 1.6 1.6 1 2.6 1.5 2.2 1 3.4 1.5c1.7.7 3.3 1.5 4.7 2.3 1.4.8 2.6 1.7 3.6 2.8 1 1 1.7 2.2 2.3 3.5.5 1.3.8 2.9.8 4.6 0 2.4-.5 4.5-1.4 6.1s-2.2 3-3.7 4c-1.6 1-3.4 1.8-5.5 2.2s-4.3.7-6.6.7c-2.4 0-4.6-.2-6.8-.6-2.2-.6-4.1-1.2-5.6-2zM159.8 212.5h184.4v11.2H159.8zM159.8 246.4h184.4v11.2H159.8zM159.8 280.3H258v11.2h-98.2zM159.8 314.1H258v11.2h-98.2zM159.8 348H258v11.2h-98.2z"/>
  </g>
    <path fill="#2B2A40" d="M274.2 280.3h70v79h-70z"/>
</svg>
