<svg xmlns="http://www.w3.org/2000/svg" version="1.0" viewBox="0 0 700 700" width="700.000000pt" height="700.000000pt"
     preserveAspectRatio="xMidYMid meet">
    <path d="M328 .6c-1.9.2-8.4.9-14.5 1.4-41 4-84.6 16.9-122.5 36.2-34.3 17.6-62.8 38.7-90.8 67.2-56.1 57.2-88.3 125.2-98.4 208.1C1.1 319.1.6 335.2.6 350c0 26.8.7 36.2 4.5 58.8 9.6 57.5 34.8 113.8 71.6 159.7 11.5 14.4 33.9 37.3 48.3 49.4 53.7 45.1 115.7 71.5 188.5 80.3 13.5 1.6 59 1.6 73.5-.1 51.2-5.8 100.2-22.2 142.6-47.8 63.5-38.3 113.6-95.7 142.2-162.8 25.5-59.9 33.9-125.9 24.2-189.8-9.3-61-34-117.6-72.6-166.2-11.6-14.7-43.1-45.9-57.4-56.9-52.3-40.4-110.1-64.2-175-72.2C379.3.9 335.7-.3 328 .6zm-21.9 141.1 68.4 19.8 74.3.3 74.2.2v41.7l22.3 6.3c12.2 3.5 22.3 6.4 22.4 6.5.2.1-9.9 35.5-22.2 78.8L523 374v164h-46.9l-1.9 6.2c-1 3.5-3.6 12.5-5.8 20.1-3.8 13.5-4 13.8-6.4 13.3-1.4-.2-32.7-9.2-69.5-19.8l-67-19.3-74.2-.3-74.3-.2v-41.7l-22.2-6.3c-12.3-3.5-22.4-6.4-22.5-6.5-.2-.1 9.8-35.5 22.2-78.8l22.5-78.6V162h46.9l1.6-5.2c.8-2.8 3.4-11.8 5.7-20 2.3-8.2 4.7-14.8 5.3-14.8.7 0 32 8.9 69.6 19.7z"/>
    <path d="M443.7 199c-11.3 2.9-17.1 10.7-15.3 20.5 1.1 5.4 6.1 10.4 14.6 14.3 4.1 1.9 8.5 4.4 9.8 5.5 5.2 4.8.8 10.2-8.2 10.1-4.4-.1-8.6-1.5-15.8-5.2-.5-.2-.8 2.5-.8 6.1v6.5l4.2 1.7c2.7 1 7.1 1.6 12.5 1.7 16.5 0 24.3-5.5 24.3-17.1 0-8.9-4-13.8-15.9-19.2-7.3-3.3-11.1-6.4-11.1-8.9 0-5.3 10.8-7.6 19.8-4.2l5.2 2v-5.9c0-5.6-.2-6-2.7-7-3.9-1.5-16.1-2-20.6-.9zM231 229v30h12v-42.5l14 21.2 14 21.3h14v-60h-13v41.2l-11.6-17.8c-6.5-9.9-12.4-19.1-13.3-20.6-1.5-2.6-2-2.8-8.8-2.8H231v30zM299 229v30h36v-11h-23.1l.3-6.8.3-6.7 9.8-.3 9.8-.3-.3-5.2-.3-5.2-9.7-.3-9.8-.3V210h21v-11h-34v30zM339 200.2c0 .9 12.5 49.9 14.6 57 .5 1.5 1.8 1.8 8.4 1.8h7.8l1.5-4.8c.7-2.7 3.3-12.5 5.7-21.8l4.4-16.9 5.5 21.7 5.5 21.8h15.1l7.8-29.3c4.2-16 7.7-29.6 7.7-30 0-.4-3-.7-6.7-.5l-6.7.3-4.6 22.2-4.5 22.2-5.4-22.4-5.5-22.5h-14.5l-1.5 5.2c-.9 2.9-3.8 13.4-6.5 23.3s-5 16.9-5 15.5c-.1-1.4-2.1-11.7-4.4-23l-4.4-20.5-7.1-.3c-5.2-.2-7.2.1-7.2 1zM222 303v8h256v-16H222v8zM222 350v8h256v-16H222v8zM222 397v8h136v-16H222v8zM381 444v55h97V389h-97v55zM222 444v8h136v-16H222v8zM222 491v8h136v-16H222v8z"/>
</svg>
